<svg width="600" height="600" viewBox="0 0 600 600" fill="none" xmlns="http://www.w3.org/2000/svg">
<g clip-path="url(#clip0_5_4)">
<circle cx="300" cy="300" r="250" fill="#3D1461"/>
<path d="M497.316 138.62C497.136 139.678 497.261 140.452 497.691 140.941L499.204 142.784C498.984 143.323 498.764 143.862 498.544 144.402C498.315 144.811 498.09 145.286 497.87 145.825C497.421 146.774 497.246 147.897 497.346 149.195C496.048 150.993 495.019 152.9 494.26 154.917C493.501 156.935 492.473 158.842 491.174 160.64C489.786 162.967 488.463 165.288 487.205 167.605C485.936 169.792 484.733 171.974 483.594 174.151C481.437 178.366 479.01 182.47 476.314 186.465C475.265 188.113 474.641 189.336 474.442 190.135C474.132 191.203 473.618 192.157 472.899 192.996C471.001 195.493 469.838 197.345 469.408 198.553C468.979 199.762 468.554 201.035 468.135 202.373C467.036 205.07 465.788 207.516 464.39 209.713L462.877 212.964C462.428 213.913 461.933 215.126 461.394 216.604C460.255 218.781 459.237 220.818 458.338 222.716C457.559 224.473 456.54 226.511 455.282 228.827C454.863 230.166 454.353 231.184 453.754 231.883C453.035 232.722 452.656 233.731 452.616 234.909C451.217 237.106 449.814 239.238 448.406 241.305C446.998 243.373 445.865 245.615 445.006 248.031C444.207 251.227 443.453 254.158 442.744 256.824C442.165 259.481 440.991 262.052 439.223 264.539C438.554 266.027 437.875 267.385 437.186 268.614C436.497 269.842 435.868 271 435.299 272.089C434.719 273.048 434.08 274.076 433.381 275.175C432.812 276.263 432.243 277.352 431.674 278.44C430.535 280.617 429.546 282.195 428.707 283.174C427.869 284.152 427.01 285.72 426.131 287.877C424.273 290.893 422.551 293.964 420.963 297.09C419.495 300.076 417.772 303.147 415.795 306.302C414.427 308.889 413.418 311.056 412.769 312.804C412.01 314.821 410.861 316.868 409.323 318.945C408.544 322.401 406.817 325.407 404.14 327.963C401.723 333.895 399.576 339.937 397.699 346.089C395.821 352.24 393.954 358.522 392.096 364.933C391.048 366.581 390.508 368.059 390.478 369.367C389.01 372.353 388.171 374.181 387.962 374.85C387.762 375.649 387.482 376.258 387.123 376.677C385.495 379.284 383.997 381.88 382.629 384.467C382.059 385.555 381.49 386.644 380.921 387.732C380.342 388.691 379.763 389.65 379.183 390.608C378.005 392.266 376.886 393.854 375.828 395.372C374.769 396.89 374.06 398.707 373.701 400.825C371.843 403.84 370.051 406.851 368.323 409.857C366.595 412.863 365.222 416.234 364.203 419.969C362.436 422.455 361.187 424.902 360.458 427.309C358.301 429.825 356.803 432.422 355.964 435.098C351.89 439.852 347.87 444.47 343.905 448.954C339.941 453.438 335.502 457.697 330.588 461.732C329.949 461.912 329.31 462.091 328.671 462.271C328.032 462.451 327.398 462.696 326.768 463.005C325.63 463.485 324.207 463.659 322.499 463.529C320.931 463.519 319.398 463.115 317.9 462.316C316.542 461.637 315.029 461.492 313.362 461.882C311.464 460.983 309.477 458.916 307.4 455.68C306.711 453.513 306.186 451.79 305.827 450.512C305.457 449.104 304.953 447.641 304.314 446.123C303.535 444.485 302.831 442.972 302.202 441.584C301.702 440.186 301.278 438.913 300.929 437.764C300.21 435.207 300.05 432.281 300.449 428.986L301.827 418.89C302.586 415.175 303.276 411.4 303.895 407.565C304.514 403.73 304.943 399.975 305.183 396.3C305.583 391.307 306.157 386.039 306.906 380.496C307.655 374.954 308.249 369.946 308.689 365.472C309.248 362.556 309.807 359.64 310.367 356.724C310.926 353.807 311.096 350.921 310.876 348.065C310.586 344.3 310.596 341.035 310.906 338.268C311.905 330.878 313.493 323.508 315.67 316.158C317.847 308.808 319.974 301.658 322.051 294.707C322.471 293.369 322.875 291.836 323.265 290.109C323.654 288.381 323.919 286.728 324.059 285.15C324.109 284.102 324.099 283.123 324.029 282.214C324.089 281.295 324.084 280.382 324.014 279.473C323.944 278.564 323.874 277.655 323.804 276.747C323.864 275.828 323.919 274.844 323.969 273.796C324.338 271.808 324.478 270.23 324.388 269.062C324.308 268.023 324.184 267.249 324.014 266.74C323.844 266.231 323.849 265.447 324.029 264.388C323.929 263.09 324.024 261.777 324.314 260.449C324.523 259.779 324.663 259.05 324.733 258.262C324.933 257.463 325.127 256.599 325.317 255.67C325.417 253.573 325.427 252.005 325.347 250.966C325.287 250.187 325.227 249.408 325.167 248.63C325.227 247.711 325.287 246.792 325.347 245.873C321.472 251.526 317.792 257.163 314.307 262.785C310.812 268.278 307.576 273.75 304.6 279.203C301.624 284.656 298.518 290.118 295.282 295.591C292.177 301.053 289.006 306.521 285.77 311.994C284.682 314.82 283.323 317.536 281.696 320.143C279.938 322.759 278.44 325.356 277.202 327.932C276.632 329.021 276.003 330.179 275.314 331.407C274.745 332.496 274.111 333.589 273.412 334.688C272.713 335.786 272.018 336.95 271.329 338.178C270.76 339.267 270.191 340.355 269.622 341.444C269.192 342.652 268.763 343.86 268.333 345.069C268.024 346.137 267.714 347.206 267.405 348.275C266.805 350.671 265.917 352.699 264.738 354.356C264.399 355.035 263.994 355.719 263.525 356.409C263.185 357.088 262.781 357.772 262.311 358.461C261.842 359.15 261.373 359.839 260.903 360.528C260.564 361.207 260.224 361.886 259.885 362.565L256.095 366.774C255.495 367.474 254.831 368.178 254.102 368.887C253.503 369.586 252.904 370.285 252.305 370.984C251.296 371.453 249.983 373.056 248.365 375.792C246.877 378.519 245.399 381.375 243.931 384.361C242.453 387.217 241.429 389.189 240.86 390.278C238.963 396.17 236.775 401.692 234.299 406.845C231.822 411.998 229.215 417.161 226.479 422.334C226.02 423.153 225.56 423.972 225.101 424.791C224.771 425.6 224.382 426.479 223.933 427.427C223.044 429.455 222.065 431.162 220.996 432.55C218.59 436.914 216.722 440.649 215.394 443.755C213.836 447.27 211.779 450.236 209.222 452.653C208.803 453.991 208.238 455.145 207.529 456.113C206.7 457.222 206.266 458.365 206.226 459.544C204.918 461.212 203.19 462.52 201.043 463.468C198.516 464.577 196.26 465.795 194.272 467.123C192.535 468.302 190.462 469.375 188.056 470.344C185.649 471.313 182.967 471.258 180.011 470.179C179.612 470.079 179.053 469.6 178.334 468.741C177.754 468.002 177.075 467.663 176.296 467.723C175.517 466.085 174.589 465.046 173.51 464.607C172.432 464.167 171.263 463.408 170.005 462.33C169.586 461.97 169.086 461.421 168.507 460.682C168.357 460.432 168.138 460.123 167.848 459.753C167.558 459.384 167.269 459.014 166.979 458.645C165.281 456.947 163.634 455.049 162.036 452.952C160.438 450.855 159.14 448.408 158.141 445.612C158.081 444.833 157.961 444.124 157.782 443.485C157.602 442.846 157.472 442.007 157.392 440.968C157.192 440.07 156.783 438.991 156.164 437.733C155.695 436.724 155.395 435.376 155.265 433.688C155.315 432.64 155.435 431.651 155.625 430.722C155.804 429.664 155.989 428.67 156.179 427.741L157.512 422.154C157.882 420.167 158.326 418.304 158.845 416.566C159.355 414.699 159.869 412.896 160.388 411.159C160.908 409.421 161.422 407.618 161.931 405.751C162.441 403.884 162.875 401.891 163.235 399.774C163.904 396.588 164.743 393.912 165.751 391.745C166.75 387.75 167.504 384.819 168.013 382.952C168.653 381.074 169.536 378.133 170.665 374.129C171.124 369.914 171.813 366.14 172.732 362.804L175.638 352.198C176.357 347.964 177.796 342.042 179.953 334.432C182.1 326.693 184.187 319.023 186.214 311.424C188.232 303.694 189.35 297.862 189.57 293.927C190.249 292.569 190.783 291.026 191.173 289.298C191.363 288.37 191.562 287.571 191.772 286.902C191.972 286.103 192.177 285.369 192.386 284.7C193.145 280.985 194.274 276.131 195.772 270.139C197.4 264.137 198.758 258.875 199.847 254.351C201.245 248.758 202.588 243.301 203.876 237.978C205.165 232.655 206.168 227.876 206.887 223.642C207.746 221.225 208.226 218.12 208.325 214.325C208.425 210.53 208.336 206.815 208.056 203.18C202.034 208.083 197.091 212.577 193.226 216.661C191.288 218.639 189.351 220.616 187.414 222.593C185.476 224.571 183.469 226.488 181.392 228.346C180.483 230.113 179.22 231.516 177.602 232.555C176.363 233.434 174.98 234.977 173.452 237.184C172.164 237.413 171.17 238.077 170.471 239.176C169.882 240.005 168.898 240.799 167.52 241.558C164.874 242.806 161.668 243.575 157.903 243.864C157.384 243.904 156.595 243.834 155.536 243.655C154.478 243.475 153.689 243.405 153.17 243.445C151.871 243.545 150.343 244.054 148.586 244.973L144.062 247.28C143.563 247.579 143.063 247.879 142.564 248.178C142.194 248.468 141.89 248.753 141.65 249.032C141.41 249.312 141.041 249.602 140.542 249.901C140.172 250.191 139.738 250.485 139.238 250.785C137.98 251.404 136.817 251.559 135.748 251.249C134.54 250.82 133.346 250.585 132.168 250.545C130.85 250.385 129.936 250.39 129.427 250.56C128.787 250.74 127.974 250.345 126.985 249.377C127.524 247.899 128.158 246.805 128.887 246.096C129.616 245.387 130.251 244.294 130.79 242.816C132.887 241.218 134.685 239.121 136.183 236.524C137.561 235.765 138.544 234.971 139.134 234.142C139.603 233.453 140.447 232.54 141.665 231.401C142.504 230.422 143.358 229.639 144.227 229.049C145.096 228.46 145.94 227.546 146.758 226.308C149.635 224.65 152.031 222.703 153.949 220.466C155.986 218.089 158.383 216.142 161.139 214.624C163.985 212.577 165.893 211.059 166.861 210.07C168.08 208.932 169.498 207.843 171.116 206.805C172.334 205.666 173.243 204.747 173.842 204.048C174.441 203.349 175.35 202.431 176.568 201.292C177.787 200.154 178.945 199.085 180.044 198.086C181.272 197.078 182.436 196.074 183.534 195.076L190.14 189.278C192.457 185.444 194.919 182.642 197.525 180.875C200.132 179.107 202.813 177.464 205.57 175.947C206.808 175.068 208.051 174.254 209.3 173.505C210.548 172.756 211.961 172.451 213.539 172.591C214.577 172.511 215.296 172.521 215.696 172.621C216.095 172.721 216.814 172.731 217.853 172.651C220.32 172.461 222.242 172.836 223.62 173.775C225.278 174.953 226.851 175.877 228.339 176.546C229.717 177.485 230.746 178.124 231.425 178.463C232.244 178.923 233.032 179.842 233.791 181.22C235.09 181.12 236.438 181.669 237.836 182.867C238.155 183.626 238.475 184.385 238.795 185.144C239.244 185.893 239.688 186.577 240.128 187.197C241.007 188.435 241.401 190.168 241.311 192.395C241.231 193.054 241.151 193.713 241.071 194.372C240.982 194.901 240.897 195.495 240.817 196.155C240.727 196.684 240.642 197.278 240.562 197.937C240.482 198.596 240.402 199.255 240.322 199.914C239.424 201.812 238.765 203.43 238.345 204.768C237.926 206.106 237.506 207.444 237.087 208.782C236.637 209.731 236.532 210.915 236.772 212.333C236.962 213.102 236.997 214.405 236.877 216.242C236.717 217.561 236.492 218.884 236.203 220.212C236.043 221.53 235.818 222.853 235.529 224.182C235.239 225.51 234.954 226.903 234.675 228.361C234.515 229.679 234.36 231.062 234.21 232.51C233.741 233.2 233.546 234.063 233.626 235.102C233.676 235.751 233.611 236.605 233.431 237.663C231.993 241.039 230.485 245.203 228.907 250.157C227.459 255.1 226.331 259.104 225.522 262.17C225.152 264.158 224.708 266.02 224.189 267.758C223.669 269.495 223.225 271.358 222.855 273.345C222.676 274.404 222.501 275.527 222.331 276.716C222.151 277.774 221.981 278.963 221.822 280.281C221.662 281.599 221.497 282.852 221.327 284.041C221.158 285.229 220.988 286.418 220.818 287.606C220.219 290.003 219.684 292.394 219.215 294.781C218.746 297.168 218.341 299.55 218.002 301.927C217.822 302.985 217.138 305.976 215.949 310.899C214.891 315.813 213.827 320.661 212.759 325.445C211.82 330.218 211.38 332.995 211.44 333.774C211.26 334.832 211.255 335.616 211.425 336.125C211.605 336.765 211.33 337.439 210.601 338.148C210.761 340.225 210.451 342.142 209.673 343.9C209.223 344.849 208.774 345.797 208.324 346.746C208.005 347.685 207.625 348.693 207.186 349.772C206.876 350.841 206.567 351.909 206.257 352.978C206.067 353.906 205.883 354.9 205.703 355.959C205.233 358.345 204.469 360.298 203.411 361.816C202.522 365.541 201.353 369.875 199.905 374.818C198.587 379.751 197.514 383.621 196.685 386.427C194.637 393.767 192.815 402.331 191.217 412.118C191.776 412.597 192.405 413.136 193.104 413.736C193.803 414.335 194.412 414.614 194.932 414.574C196.23 414.475 197.868 413.696 199.845 412.238C202.102 411.019 203.71 409.851 204.669 408.732C205.268 408.033 205.607 407.354 205.687 406.695C205.787 406.296 205.892 405.961 206.002 405.691C206.102 405.292 206.207 404.957 206.316 404.688C207.735 402.75 208.534 401.252 208.713 400.194C208.893 399.135 209.362 398.446 210.121 398.127C210.541 395.091 211.475 392.799 212.923 391.251C214.501 389.693 215.574 387.521 216.143 384.735C217.002 384.016 217.457 383.132 217.507 382.083C217.557 381.035 218.011 380.151 218.87 379.432C219.699 376.626 221.466 372.441 224.173 366.879C226.869 361.187 228.777 357.122 229.895 354.686C230.085 353.757 230.28 352.893 230.479 352.094C230.799 351.155 231.193 350.341 231.663 349.652C232.132 348.963 232.532 348.214 232.861 347.405C233.311 346.457 233.76 345.508 234.209 344.559L238.344 337.189C239.023 335.831 239.722 334.733 240.441 333.894C241.16 333.055 241.989 331.946 242.928 330.568C243.367 329.49 243.757 328.611 244.096 327.932C244.436 327.253 244.835 326.504 245.295 325.685L249.489 319.094C250.428 317.716 251.197 316.677 251.796 315.978L254.492 312.832C256.37 310.076 257.628 307.759 258.267 305.882C258.996 303.475 260.135 301.298 261.683 299.35C262.721 295.875 264.04 292.64 265.637 289.644C267.235 286.648 268.963 283.642 270.821 280.626C272.139 277.39 273.462 274.22 274.79 271.114C276.119 268.008 277.711 264.947 279.569 261.931C280.867 258.436 282.595 255.43 284.752 252.913C286.07 249.678 286.859 248.05 287.119 248.03C288.377 245.713 289.64 243.461 290.909 241.274C292.177 239.087 293.45 236.965 294.729 234.908C297.056 231.203 299.722 226.819 302.728 221.756C303.317 220.927 303.842 220.103 304.301 219.284C304.76 218.465 305.22 217.646 305.679 216.827C306.588 215.06 307.582 213.547 308.66 212.288C310.458 208.494 312.295 205.218 314.173 202.462C316.05 199.705 317.948 197.209 319.865 194.972C322.811 192.525 324.734 191.202 325.632 191.002C326.531 190.803 327.345 190.348 328.074 189.639C330.171 188.041 331.46 186.963 331.939 186.404L333.557 184.516C334.036 183.957 334.51 183.333 334.98 182.644C335.449 181.955 335.654 181.221 335.594 180.442L337.946 177.91C338.665 177.071 339.199 176.377 339.549 175.828C340.747 174.43 341.751 173.047 342.56 171.679C343.369 170.31 344.862 170.196 347.039 171.334C348.257 171.893 349.385 172.982 350.424 174.6C351.962 175.918 353.12 177.396 353.899 179.034C354.269 180.442 354.319 181.94 354.049 183.528C353.799 185.375 353.989 186.993 354.618 188.381C355.247 189.769 355.877 191.157 356.506 192.545C357.135 193.934 357.764 195.322 358.393 196.71C359.681 199.876 360.211 203.361 359.981 207.166C359.092 209.193 358.543 211.39 358.333 213.757C358.303 215.065 358.208 216.378 358.048 217.697C357.879 218.885 357.714 220.138 357.554 221.456C357.025 224.762 356.435 227.289 355.786 229.036C355.137 230.784 355.007 232.492 355.397 234.159C354.418 236.716 353.939 238.973 353.959 240.93C353.999 243.147 353.779 245.384 353.3 247.641C352.72 251.995 351.966 255.775 351.037 258.981C350.009 262.586 349.514 266.346 349.554 270.261C349.704 273.906 349.26 278.315 348.221 283.488C347.762 286.004 347.362 288.451 347.023 290.828C346.803 293.065 346.638 295.167 346.528 297.134C346.139 298.862 346.189 300.36 346.678 301.628C347.157 302.767 347.457 304.115 347.577 305.673C347.337 309.348 347.302 312.289 347.472 314.496C347.542 315.405 347.547 316.318 347.487 317.237C347.547 318.016 347.547 318.865 347.487 319.784C347.407 320.443 347.332 321.167 347.262 321.956C347.182 322.615 347.102 323.274 347.022 323.933C346.942 324.592 346.868 325.316 346.798 326.105C346.718 326.764 346.638 327.423 346.558 328.082C346.168 329.81 345.914 331.593 345.794 333.43C345.774 334.868 345.369 336.401 344.58 338.029C344.441 339.607 344.301 341.185 344.161 342.763C344.021 344.341 343.886 345.983 343.757 347.691C343.397 351.506 342.973 354.477 342.483 356.604C342.823 357.623 342.833 358.601 342.513 359.54C342.094 360.878 341.844 361.877 341.764 362.536C341.345 363.874 341.26 365.317 341.509 366.865C341.759 368.413 341.674 369.856 341.255 371.194L341.015 375.718C340.905 377.685 340.695 379.203 340.386 380.272C339.217 383.757 338.833 386.399 339.232 388.196C339.492 389.874 339.287 391.457 338.618 392.945C339.047 395.132 338.758 397.309 337.749 399.476C336.75 401.773 336.591 403.94 337.27 405.977C338.498 404.969 339.447 403.72 340.116 402.232C340.455 401.553 340.795 400.874 341.135 400.195C341.604 399.506 342.073 398.817 342.543 398.128C342.992 397.179 343.816 396.006 345.014 394.608C345.494 394.048 345.973 393.489 346.452 392.93C346.932 392.371 347.406 391.747 347.876 391.058C349.793 388.821 351.421 386.214 352.759 383.238C354.097 380.262 355.306 377.296 356.384 374.34C356.844 373.521 357.338 372.308 357.867 370.7C358.397 369.092 358.871 367.619 359.29 366.281C361.577 362.057 363.575 357.463 365.282 352.5C365.722 351.421 366.101 350.413 366.421 349.474C366.74 348.535 366.99 347.536 367.17 346.478C367.47 345.279 367.704 344.086 367.874 342.898C368.174 341.699 368.408 340.506 368.578 339.318C368.748 338.129 368.918 336.941 369.087 335.752C369.387 334.554 369.687 333.356 369.986 332.157C370.326 331.478 370.705 330.469 371.125 329.131C371.544 327.793 371.924 326.784 372.263 326.105C374.55 320.183 377.037 315.16 379.723 311.036C381.351 306.732 383.748 301.389 386.914 295.007C390.199 288.486 392.596 283.144 394.104 278.979C394.963 278.26 395.492 277.501 395.692 276.702C396.002 275.634 396.391 274.755 396.861 274.066C397.4 270.89 398.059 268.423 398.838 266.666C399.487 264.918 400.176 262.841 400.905 260.434C401.634 259.725 402.159 258.901 402.478 257.963C402.788 256.894 403.312 256.07 404.051 255.491C404.79 253.214 405.734 251.052 406.882 249.005L410.133 242.878C411.621 240.152 412.749 237.845 413.518 235.957C414.837 232.722 415.616 230.964 415.855 230.685C416.924 229.296 417.972 227.649 419.001 225.741C420.02 223.704 420.829 222.336 421.428 221.637C422.387 218.821 423.171 217.128 423.78 216.559C424.379 215.86 425.153 214.037 426.102 211.091C428.079 207.935 429.108 206.028 429.188 205.369C429.267 204.71 430.176 202.942 431.914 200.066C432.513 199.367 432.843 198.558 432.903 197.639C433.082 196.581 433.412 195.772 433.891 195.213C436.108 191.777 437.442 189.585 437.891 188.636C438.45 187.418 439.084 186.325 439.793 185.356C440.952 183.439 442.11 181.521 443.269 179.604C444.427 177.686 445.576 175.639 446.714 173.462C447.913 172.064 449.126 170.861 450.354 169.852C451.702 168.703 452.916 167.5 453.994 166.242C455.682 166.112 457.4 164.674 459.147 161.928C462.333 160.899 464.885 159.266 466.802 157.029C467.761 155.911 468.785 154.787 469.873 153.659C471.091 152.521 472.31 151.382 473.528 150.244C475.246 148.806 476.899 147.373 478.487 145.944C480.074 144.516 481.448 142.844 482.606 140.926C484.783 138.669 487.355 137.296 490.321 136.807C493.287 136.318 495.618 136.922 497.316 138.62Z" fill="#F5F5F5"/>
</g>
<defs>
<clipPath id="clip0_5_4">
<rect width="600" height="600" fill="white"/>
</clipPath>
</defs>
</svg>
